# xmcd
#
# Track frame offsets: 
#        150
#        17410
#        50133
#        70137
#        81901
#        104063
#        133695
#        164604
#        182898
#        209591
#        229103
#        251071
#        283106
#
# Disc length: 4153 seconds
#
# Revision: 0
# Processed by: cddbd v1.5.2PL0 Copyright (c) Steve Scherf et al.
# Submitted via: ExactAudioCopy v0.90b4
#
DISCID=c810370d
DTITLE=Josh Smith - Inception
DYEAR=2009
DGENRE=Blues Rock
TTITLE0=Inception
TTITLE1=Just Within Reach
TTITLE2=Looking Ahead
TTITLE3=Propulsion
TTITLE4=Drown in My Own Tears
TTITLE5=Penance
TTITLE6=Triple J Hoedown
TTITLE7=Fulfillment
TTITLE8=Canyon
TTITLE9=Hairflip
TTITLE10=Bemsha Swing
TTITLE11=Niki
TTITLE12=Resolution
EXTD=
EXTT0=
EXTT1=
EXTT2=
EXTT3=
EXTT4=
EXTT5=
EXTT6=
EXTT7=
EXTT8=
EXTT9=
EXTT10=
EXTT11=
EXTT12=
PLAYORDER=
